<mxfile host="app.diagrams.net" agent="Mozilla/5.0 (Windows NT 10.0; Win64; x64) AppleWebKit/537.36 (KHTML, like Gecko) Chrome/132.0.0.0 Safari/537.36" version="26.0.6">
  <diagram name="1 oldal" id="ACSFBiSbz-1zlLhfoLbv">
    <mxGraphModel dx="600" dy="318" grid="1" gridSize="10" guides="1" tooltips="1" connect="1" arrows="1" fold="1" page="1" pageScale="1" pageWidth="827" pageHeight="1169" math="0" shadow="0">
      <root>
        <mxCell id="0" />
        <mxCell id="1" parent="0" />
        <mxCell id="wiUiJpvOXyGMBXZtfdYm-1" value="Logger" style="swimlane;fontStyle=1;align=center;verticalAlign=top;childLayout=stackLayout;horizontal=1;startSize=26;horizontalStack=0;resizeParent=1;resizeParentMax=0;resizeLast=0;collapsible=1;marginBottom=0;whiteSpace=wrap;html=1;fillColor=#b0e3e6;strokeColor=#0e8088;" vertex="1" parent="1">
          <mxGeometry x="290" y="140" width="160" height="190" as="geometry" />
        </mxCell>
        <mxCell id="wiUiJpvOXyGMBXZtfdYm-2" value="# instance: Logger&lt;div&gt;# logs: List&amp;lt;string&amp;gt;&lt;/div&gt;&lt;div&gt;&lt;br&gt;&lt;/div&gt;" style="text;strokeColor=none;fillColor=none;align=left;verticalAlign=top;spacingLeft=4;spacingRight=4;overflow=hidden;rotatable=0;points=[[0,0.5],[1,0.5]];portConstraint=eastwest;whiteSpace=wrap;html=1;" vertex="1" parent="wiUiJpvOXyGMBXZtfdYm-1">
          <mxGeometry y="26" width="160" height="44" as="geometry" />
        </mxCell>
        <mxCell id="wiUiJpvOXyGMBXZtfdYm-3" value="" style="line;strokeWidth=1;fillColor=none;align=left;verticalAlign=middle;spacingTop=-1;spacingLeft=3;spacingRight=3;rotatable=0;labelPosition=right;points=[];portConstraint=eastwest;strokeColor=inherit;" vertex="1" parent="wiUiJpvOXyGMBXZtfdYm-1">
          <mxGeometry y="70" width="160" height="8" as="geometry" />
        </mxCell>
        <mxCell id="wiUiJpvOXyGMBXZtfdYm-4" value="&lt;div&gt;# Logger()&lt;/div&gt;&lt;div&gt;# GetDateTime(): string&lt;/div&gt;&lt;div&gt;+ GetInstance(): Logger&lt;/div&gt;&lt;div&gt;+ LogInfo(string)&lt;/div&gt;&lt;div&gt;+ LogError(string)&lt;/div&gt;&lt;div&gt;+ LogWarning(string)&lt;/div&gt;&lt;div&gt;+ GetLogs(): List&amp;lt;string&amp;gt;&lt;/div&gt;" style="text;strokeColor=none;fillColor=none;align=left;verticalAlign=top;spacingLeft=4;spacingRight=4;overflow=hidden;rotatable=0;points=[[0,0.5],[1,0.5]];portConstraint=eastwest;whiteSpace=wrap;html=1;" vertex="1" parent="wiUiJpvOXyGMBXZtfdYm-1">
          <mxGeometry y="78" width="160" height="112" as="geometry" />
        </mxCell>
        <mxCell id="wiUiJpvOXyGMBXZtfdYm-5" style="edgeStyle=orthogonalEdgeStyle;rounded=0;orthogonalLoop=1;jettySize=auto;html=1;fillColor=#b0e3e6;strokeColor=#0e8088;endSize=10;strokeWidth=2;endArrow=open;endFill=0;entryX=0.989;entryY=0.098;entryDx=0;entryDy=0;entryPerimeter=0;" edge="1" parent="1" source="wiUiJpvOXyGMBXZtfdYm-1" target="wiUiJpvOXyGMBXZtfdYm-1">
          <mxGeometry relative="1" as="geometry">
            <Array as="points">
              <mxPoint x="470" y="210" />
            </Array>
          </mxGeometry>
        </mxCell>
      </root>
    </mxGraphModel>
  </diagram>
</mxfile>
